PathFileType	4	(X/Y/Z)	D:\Share\Shared_Data\Ergonomics\Sit To Stand Pertubation\S0\Perturbed STS.trc
DataRate	CameraRate	NumFrames	NumMarkers	Units	OrigDataRate	OrigDataStartFrame	OrigNumFrames	
100	100	14	18	m	100	6161	181
Frame#	Time	R_Heel			R_ASIS			R_Pelvis			V_Sacral			L_Pelvis			L_ASIS			Clavical			R_Acromium			L_Acromium			Sternum			Torso			R_Thigh_Med			R_Thigh_Lat			R_Thigh			R_Shank_Med			R_Shank_Lat			R_Shank			R_Toe			
		X1	Y1	Z1	X2	Y2	Z2	X3	Y3	Z3	X4	Y4	Z4	X5	Y5	Z5	X6	Y6	Z6	X7	Y7	Z7	X8	Y8	Z8	X9	Y9	Z9	X10	Y10	Z10	X11	Y11	Z11	X12	Y12	Z12	X13	Y13	Z13	X14	Y14	Z14	X15	Y15	Z15	X16	Y16	Z16	X17	Y17	Z17	X18	Y18	Z18	

6161	17.95	0.14943489	0.04185445	0.14394327	-0.062193657	0.74628241	0.14043391	-0.19063782	0.75238818	0.17818887	-0.30810217	0.73544489	-0.054996506	-0.15579778	0.73949316	-0.22961931	-0.03273085	0.73173358	-0.17955162	0.14118285	1.0412031	-0.027061872	0.10297156	1.1407126	0.10948129	0.098755028	1.1358101	-0.17991794	0.12588324	0.94483716	-0.040378178	0.1282643	0.99339545	-0.14508307	0.24650745	0.49761032	0.060604153	0.22316476	0.51719348	0.19308902	0.15536589	0.65250275	0.11139886	0.24569075	0.10616713	0.10308614	0.18639403	0.087658272	0.19009029	0.2118591	0.31602615	0.20752731	0.37284091	0.050490829	0.1406143
6162	17.96	0.1494364	0.041694614	0.14376646	-0.059881104	0.74642908	0.14043054	-0.18816238	0.75360956	0.17817798	-0.3059028	0.73765918	-0.05494352	-0.15352304	0.74031958	-0.22964783	-0.030551697	0.73122339	-0.17969226	0.14764311	1.038074	-0.026881737	0.11144656	1.1387809	0.10906922	0.10698305	1.1335031	-0.17977072	0.13134935	0.94205981	-0.040312748	0.13431004	0.99067133	-0.14497025	0.24711765	0.49735568	0.059908707	0.2239984	0.5170929	0.19241808	0.15648094	0.65252393	0.11077087	0.24573433	0.10595134	0.10274975	0.18645937	0.087613014	0.18979143	0.21238464	0.31594144	0.20701854	0.37294211	0.050638767	0.14048756
6163	17.97	0.14945036	0.041514473	0.14359708	-0.057520405	0.74659418	0.14044392	-0.18562285	0.7548985	0.17816333	-0.30363782	0.73996411	-0.054900978	-0.15120184	0.74117047	-0.22969063	-0.028349979	0.73070135	-0.17984804	0.15427895	1.034892	-0.026653656	0.12002518	1.1367864	0.10861523	0.11536546	1.1311783	-0.1795766	0.13699081	0.93926678	-0.040257008	0.14045901	0.98794073	-0.14488571	0.24768452	0.49703711	0.059182194	0.22483765	0.51696796	0.19171068	0.15763379	0.65252637	0.11009387	0.24578058	0.10570611	0.10241022	0.18653119	0.087544121	0.18949344	0.21290771	0.31583597	0.20648027	0.37303592	0.050832767	0.14035745
6164	17.98	0.14947656	0.041322647	0.14343616	-0.055110214	0.74678973	0.14048293	-0.18301274	0.75627954	0.1781423	-0.30130655	0.74237891	-0.054876835	-0.14883734	0.742052	-0.22975235	-0.026132418	0.73017542	-0.18002107	0.16109355	1.0316776	-0.026382183	0.12868715	1.1347396	0.10812705	0.12389384	1.1288439	-0.17933069	0.14281154	0.93647333	-0.040217278	0.14671503	0.98522321	-0.14483229	0.24819945	0.49666748	0.058429916	0.22568404	0.51683246	0.19097491	0.15882013	0.65251642	0.10936285	0.24583035	0.10544066	0.10206712	0.18660849	0.087460693	0.18920302	0.21342697	0.31572031	0.20591789	0.37311465	0.051079212	0.14021477
6165	17.99	0.14951457	0.041127792	0.14328108	-0.052642132	0.74703021	0.14055	-0.18032175	0.75777502	0.17810982	-0.29890604	0.74492279	-0.054879414	-0.1464297	0.74297144	-0.22984015	-0.023902866	0.72965558	-0.18021751	0.16806944	1.028452	-0.026078819	0.13741324	1.1326538	0.10761278	0.13255757	1.126506	-0.17902859	0.14880429	0.93369305	-0.040203037	0.15307587	0.98253741	-0.14480997	0.24866125	0.49626688	0.057659626	0.22654311	0.516703	0.19022096	0.16004066	0.65250867	0.10857446	0.24588564	0.10516588	0.10171761	0.18669208	0.087371712	0.18891986	0.21394379	0.31560278	0.20533844	0.37317191	0.051382004	0.14004721
6166	18	0.14956415	0.040936295	0.14312651	-0.050102585	0.74732971	0.14063806	-0.17753532	0.75940338	0.17805827	-0.29642932	0.7476153	-0.054915901	-0.14397443	0.74393689	-0.22996336	-0.021661102	0.7291535	-0.18044696	0.17517833	1.0252362	-0.0257614	0.14618433	1.1305411	0.10707987	0.141339	1.1241714	-0.17866736	0.15494951	0.93093652	-0.040226387	0.15953842	0.97989868	-0.14481551	0.24907686	0.49585822	0.056881031	0.22741714	0.51659375	0.18946068	0.16129785	0.65252002	0.10773012	0.24594872	0.1048919	0.1013583	0.18678445	0.08728418	0.18863898	0.21446106	0.31548801	0.20474983	0.37320483	0.051738968	0.13984312
6167	18.01	0.14962576	0.040752106	0.14296689	-0.047473511	0.74769952	0.1407296	-0.1746357	0.76118091	0.17797801	-0.29386441	0.75047375	-0.054991035	-0.14146115	0.74495978	-0.23013213	-0.019400856	0.72868164	-0.18072336	0.18239056	1.0220477	-0.025450024	0.15498003	1.12841	0.10653508	0.15021252	1.1218492	-0.17824667	0.16121568	0.92820972	-0.040300606	0.16610246	0.97731854	-0.14483995	0.24945938	0.49546323	0.056105392	0.22830043	0.51651215	0.18870734	0.16259343	0.65256451	0.10683843	0.24602264	0.10462653	0.10098737	0.18689003	0.08720256	0.18835516	0.21498189	0.31537735	0.20416101	0.37321667	0.052139839	0.13959627
6168	18.02	0.14970099	0.040577911	0.1427995	-0.044733578	0.74814648	0.14079935	-0.1716037	0.76312299	0.17785825	-0.29119458	0.75351306	-0.055107212	-0.13887344	0.74605536	-0.23035577	-0.017108913	0.72825146	-0.18106389	0.1896797	1.0188986	-0.025161631	0.16377768	1.1262656	0.10598491	0.15914868	1.11955	-0.17776964	0.16756265	0.9255155	-0.040437965	0.17277176	0.97480542	-0.14486624	0.24982401	0.49509909	0.055345856	0.22918288	0.51645862	0.18797479	0.16392926	0.65265173	0.10591577	0.24611214	0.10437489	0.10060648	0.18701477	0.087129074	0.18806688	0.21550853	0.31526981	0.20358171	0.37321738	0.052567081	0.13930908
6169	18.03	0.14979175	0.040416191	0.14262677	-0.041862331	0.74867517	0.14081877	-0.16842018	0.76524463	0.17768822	-0.28839941	0.75674585	-0.055265854	-0.13619017	0.74724463	-0.23064107	-0.014766932	0.72787372	-0.18148138	0.19702313	1.0157964	-0.024907051	0.17255243	1.1241113	0.10543598	0.16811705	1.1172843	-0.17724278	0.17394693	0.92285675	-0.040646843	0.17955136	0.9723667	-0.14486964	0.2501843	0.49477594	0.054617054	0.23005605	0.51642938	0.18727652	0.16530933	0.65278601	0.10498528	0.24622299	0.1041398	0.10022212	0.18716504	0.087063782	0.18777834	0.21604251	0.31516376	0.2030231	0.37322134	0.052999382	0.13899339
6170	18.04	0.14989909	0.040269272	0.14245662	-0.038844303	0.7492926	0.1407603	-0.16506725	0.7675589	0.17745865	-0.28545605	0.76018335	-0.055468033	-0.13338795	0.74855261	-0.23099062	-0.012354433	0.72755859	-0.18197223	0.20439957	1.0127488	-0.024691673	0.18127849	1.1219519	0.10489489	0.1770862	1.1150646	-0.1766757	0.18032878	0.92024115	-0.040928951	0.18644362	0.97001031	-0.1448232	0.25055219	0.49449713	0.05393351	0.23091571	0.51641809	0.18662502	0.16674001	0.65296643	0.10407455	0.24635959	0.10392213	0.099845901	0.18734489	0.087004875	0.18749937	0.21658543	0.31505838	0.20249789	0.37324304	0.053416245	0.13866853
6171	18.05	0.15002119	0.040138481	0.14230109	-0.035669052	0.7500108	0.14060075	-0.16152957	0.77007513	0.17716301	-0.28234241	0.76383478	-0.055713417	-0.13044424	0.75000592	-0.2314016	-0.0098507824	0.72731396	-0.18251421	0.21178468	1.0097699	-0.024517149	0.18993103	1.1197993	0.10436781	0.18602495	1.1129072	-0.17607953	0.18668163	0.91768481	-0.041277073	0.1934446	0.96774469	-0.14470575	0.25093925	0.49426001	0.053307613	0.2317628	0.51641913	0.18603166	0.16823009	0.65318762	0.10321169	0.24652061	0.10372049	0.099493118	0.18755318	0.086949211	0.18724326	0.21714011	0.3149537	0.20201918	0.37329153	0.053801334	0.13835693
6172	18.06	0.1501521	0.040023445	0.14217371	-0.032330433	0.75084424	0.14032393	-0.15779578	0.77279712	0.17679817	-0.2790405	0.76770667	-0.055999496	-0.12734013	0.7516283	-0.2318652	-0.0072358589	0.72714319	-0.1830739	0.21914944	1.0068837	-0.02438146	0.19848822	1.117674	0.10386007	0.19490659	1.1108335	-0.17546538	0.19300191	0.9152124	-0.041673637	0.20053995	0.96557843	-0.14450916	0.25135898	0.49405801	0.052748005	0.23260408	0.51642767	0.18550465	0.1697914	0.65344116	0.10242027	0.24669543	0.10353055	0.099179817	0.18778207	0.086893364	0.1870233	0.21771097	0.31485083	0.20159854	0.37336749	0.05414407	0.13807961
6173	18.07	0.15028262	0.03992202	0.14208626	-0.028827309	0.75180695	0.13992207	-0.15385966	0.77572174	0.17636459	-0.27553888	0.77179877	-0.056322018	-0.12406168	0.75343579	-0.23236687	-0.0044904003	0.7270437	-0.18360867	0.22646332	1.0041248	-0.024277998	0.20693196	1.1156074	0.10337604	0.20371214	1.1088701	-0.1748427	0.19930952	0.91285492	-0.042091488	0.20769978	0.96352277	-0.14424146	0.25182765	0.49388171	0.052258377	0.23345134	0.51644141	0.18504674	0.17144133	0.65371918	0.10171455	0.24686349	0.10334457	0.098918732	0.18801884	0.086834709	0.18684946	0.21830341	0.3147515	0.20124309	0.37346344	0.0544394	0.13785204
6174	18.08	0.15040309	0.039831081	0.14204497	-0.025162283	0.7529082	0.13939688	-0.14972141	0.77883813	0.17586615	-0.2718334	0.77610028	-0.056676018	-0.12060052	0.75543256	-0.23288753	-0.0015971289	0.727008	-0.1840648	0.23369955	1.0015345	-0.024196054	0.21524742	1.1136379	0.10291894	0.21242969	1.107047	-0.17421849	0.20563403	0.91064636	-0.042498692	0.2148806	0.96159723	-0.14392212	0.25236407	0.49371994	0.051836742	0.23431903	0.51645923	0.18465395	0.17320404	0.65401666	0.10109663	0.24699959	0.10315208	0.098714897	0.18824998	0.086772209	0.18672632	0.2189222	0.31465771	0.20095248	0.37356787	0.054685829	0.13768179
